<svg width="516" height="516" viewBox="0 0 516 516" fill="none" xmlns="http://www.w3.org/2000/svg">
<path d="M180.5 479L129.5 267.5L318 152.5L364.5 237.5L300 430.5L180.5 479Z" fill="white"/>
<path d="M247.164 30.9084L196.648 67.596L130.032 267.236L153.768 309.032L318.166 151.652L180.084 233.696L223.428 70.692L247.164 30.9084Z" fill="white"/>
<path d="M317.34 60.888L355.524 75.852L369.456 66.048L322.5 48.504L317.34 60.888Z" fill="white"/>
<path d="M320.23 58.9788L371.572 70.5372L321.262 86.3268L320.23 58.9788Z" fill="#EB9009"/>
<path d="M188.856 478.848L290.044 451.448L353.46 479.364L188.856 478.848Z" fill="#EB9009"/>
<path d="M315.792 44.892L318 147.266L166.977 243.294L213.314 72.9624L254.13 22.4976L315.792 44.892Z" fill="black"/>
<path d="M149.64 306.246L318 147.266L246.132 281.736L218.216 425.339L194.016 381.324L149.64 306.246Z" fill="black"/>
<path d="M256.692 72.756C256.692 83.4513 265.365 92.124 276.06 92.124C286.755 92.124 295.428 83.4513 295.428 72.756C295.428 62.0607 286.755 53.388 276.06 53.388C265.365 53.388 256.692 62.0607 256.692 72.756Z" fill="white" stroke="black" stroke-width="15"/>
<path d="M384.936 66.7704L317.03 90.8676V145.976M384.936 66.7704L317.082 90.6096L317.03 43.4145M384.936 66.7704L317.03 43.4145M127.71 269.868L195.822 65.016L253.666 21.6204L317.03 43.4145M127.71 269.868L180 479.624M127.71 269.868L317.03 145.976M127.71 269.868L217.958 425.339L244.79 284.368L317.03 145.976M180 479.624L354.905 479.209L301.138 428.538M180 479.624L285 479.353L301.138 428.538M180 479.624L301.138 428.538M301.138 428.538L362.645 236.896L317.03 145.976" stroke="black" stroke-width="15" stroke-linejoin="round"/>
</svg>
