<svg width="273" height="474" viewBox="0 0 273 474" fill="none" xmlns="http://www.w3.org/2000/svg">
<path d="M264.936 52.7704L197.03 76.8676V131.976M264.936 52.7704L197.082 76.6096L197.03 29.4145M264.936 52.7704L197.03 29.4145M7.70996 255.868L75.822 51.016L133.666 7.62039L197.03 29.4145M7.70996 255.868L60 465.624M7.70996 255.868L197.03 131.976M7.70996 255.868L97.9584 411.339L124.79 270.368L197.03 131.976M60 465.624L234.905 465.209L181.138 414.538M60 465.624L165 465.353L181.138 414.538M60 465.624L181.138 414.538M181.138 414.538L242.645 222.896L197.03 131.976" stroke="white" stroke-width="15" stroke-linejoin="round"/>
</svg>
