<svg width="529" height="538" viewBox="0 0 529 538" fill="none" xmlns="http://www.w3.org/2000/svg">
<g clip-path="url(#clip0_21_15)">
<path d="M178.591 515.988L123.045 287.273L328.349 162.913L378.994 254.831L308.744 463.541L178.591 515.988Z" fill="white"/>
<path d="M251.198 31.4242L196.178 71.098L123.624 286.988L149.476 332.186L328.529 161.996L178.138 250.718L225.346 74.446L251.198 31.4242Z" fill="white"/>
<path d="M327.63 63.844L369.218 80.026L384.392 69.424L333.25 50.452L327.63 63.844Z" fill="white"/>
<path d="M330.777 61.7794L386.696 74.2786L331.901 91.3534L330.777 61.7794Z" fill="#EB9009"/>
<path d="M187.692 515.824L297.9 486.194L366.97 516.382L187.692 515.824Z" fill="#EB9009"/>
<path d="M325.944 46.546L328.349 157.253L163.863 261.097L214.331 76.9012L258.785 22.3288L325.944 46.546Z" fill="black"/>
<path d="M144.98 329.173L328.349 157.253L250.074 302.668L219.67 457.959L193.312 410.362L144.98 329.173Z" fill="black"/>
<path d="M282.67 89.512C275.532 89.512 269.744 83.7646 269.744 76.678C269.744 69.5914 275.532 63.844 282.67 63.844C289.807 63.844 295.596 69.5914 295.596 76.678C295.596 83.7646 289.807 89.512 282.67 89.512Z" fill="white"/>
<path fill-rule="evenodd" clip-rule="evenodd" d="M282.67 104.512C267.349 104.512 254.744 92.1497 254.744 76.678C254.744 61.2063 267.349 48.844 282.67 48.844C297.99 48.844 310.596 61.2063 310.596 76.678C310.596 92.1497 297.99 104.512 282.67 104.512ZM269.744 76.678C269.744 83.7646 275.532 89.512 282.67 89.512C289.807 89.512 295.596 83.7646 295.596 76.678C295.596 69.5914 289.807 63.844 282.67 63.844C275.532 63.844 269.744 69.5914 269.744 76.678Z" fill="black"/>
<path d="M253.799 15.3655C255.781 13.8889 258.364 13.4838 260.703 14.2826L403.676 63.1076C406.699 64.1401 408.736 66.9743 408.752 70.1689C408.767 73.3635 406.757 76.2173 403.744 77.279L403.722 77.2867L334.793 101.573V154.071L383.668 250.795C384.559 252.559 384.718 254.604 384.11 256.485L318.584 459.196L373.668 510.738C375.914 512.84 376.649 516.099 375.523 518.961C374.396 521.823 371.637 523.707 368.561 523.715L178.066 524.164H178.064C174.619 524.172 171.611 521.832 170.772 518.49L113.821 291.66C113.472 290.271 113.528 288.811 113.983 287.452L188.167 65.9264C188.653 64.4752 189.571 63.2075 190.799 62.2932L253.799 15.3655Z" stroke="white" stroke-width="16" stroke-linejoin="round"/>
<rect x="-24" y="-8" width="574" height="570" stroke="white" stroke-width="12"/>
<path d="M178.591 515.988L123.045 287.273L328.349 162.913L378.994 254.831L308.744 463.541L178.591 515.988Z" fill="white"/>
<path d="M251.198 31.4242L196.178 71.098L123.624 286.988L149.476 332.186L328.529 161.996L178.138 250.718L225.346 74.446L251.198 31.4242Z" fill="white"/>
<path d="M327.63 63.844L369.218 80.026L384.392 69.424L333.25 50.452L327.63 63.844Z" fill="white"/>
<path d="M330.777 61.7794L386.696 74.2786L331.901 91.3534L330.777 61.7794Z" fill="#EB9009"/>
<path d="M187.692 515.824L297.9 486.194L366.97 516.382L187.692 515.824Z" fill="#EB9009"/>
<path d="M325.944 46.546L328.349 157.253L163.863 261.097L214.331 76.9012L258.785 22.3288L325.944 46.546Z" fill="black"/>
<path d="M144.98 329.173L328.349 157.253L250.074 302.668L219.67 457.959L193.312 410.362L144.98 329.173Z" fill="black"/>
<path d="M282.67 89.512C275.532 89.512 269.744 83.7646 269.744 76.678C269.744 69.5914 275.532 63.844 282.67 63.844C289.807 63.844 295.596 69.5914 295.596 76.678C295.596 83.7646 289.807 89.512 282.67 89.512Z" fill="white"/>
<path fill-rule="evenodd" clip-rule="evenodd" d="M282.67 104.512C267.349 104.512 254.744 92.1497 254.744 76.678C254.744 61.2063 267.349 48.844 282.67 48.844C297.99 48.844 310.596 61.2063 310.596 76.678C310.596 92.1497 297.99 104.512 282.67 104.512ZM269.744 76.678C269.744 83.7646 275.532 89.512 282.67 89.512C289.807 89.512 295.596 83.7646 295.596 76.678C295.596 69.5914 289.807 63.844 282.67 63.844C275.532 63.844 269.744 69.5914 269.744 76.678Z" fill="black"/>
<path fill-rule="evenodd" clip-rule="evenodd" d="M253.799 15.3655C255.781 13.8889 258.364 13.4838 260.703 14.2826L403.676 63.1076C406.699 64.1401 408.736 66.9743 408.752 70.1689C408.767 73.3635 406.757 76.2173 403.744 77.279L403.722 77.2867L334.793 101.573V154.071L383.668 250.795C384.559 252.559 384.718 254.604 384.11 256.485L318.584 459.196L373.668 510.738C375.914 512.84 376.649 516.099 375.523 518.961C374.396 521.823 371.637 523.707 368.561 523.715L178.066 524.164H178.064C174.619 524.172 171.611 521.832 170.772 518.49L113.821 291.66C113.472 290.271 113.528 288.811 113.983 287.452L188.167 65.9264C188.653 64.4752 189.571 63.2075 190.799 62.2932L253.799 15.3655ZM302.68 508.87L349.599 508.759L313.515 474.995L302.68 508.87ZM303.907 455.832L368.888 254.807L327.161 172.227L255.769 308.019L226.755 459.371C226.166 462.441 223.736 464.823 220.656 465.351C217.576 465.88 214.491 464.443 212.914 461.745L141.187 339.061L183.196 506.376L303.907 455.832ZM215.607 509.067L286.927 508.884L297.888 474.614L215.607 509.067ZM131.181 292.225L215.783 436.932L241.247 304.102C241.386 303.377 241.631 302.677 241.974 302.024L307.281 177.805L131.181 292.225ZM319.793 151.787L135.032 271.834L201.644 72.9185L259.592 29.754L319.799 50.3143L319.848 95.3509C319.812 95.6511 319.793 95.9558 319.793 96.2638V151.787ZM378.265 70.2805L334.837 85.4294L334.804 55.4387L378.265 70.2805Z" fill="black"/>
</g>
<defs>
<clipPath id="clip0_21_15">
<rect width="529" height="538" fill="white"/>
</clipPath>
</defs>
</svg>
