<svg width="516" height="516" viewBox="0 0 516 516" fill="none" xmlns="http://www.w3.org/2000/svg">
<path d="M384.936 66.7704L317.03 90.8676V145.976M384.936 66.7704L317.082 90.6096L317.03 43.4145M384.936 66.7704L317.03 43.4145M127.71 269.868L195.822 65.016L253.666 21.6204L317.03 43.4145M127.71 269.868L180 479.624M127.71 269.868L317.03 145.976M127.71 269.868L217.958 425.339L244.79 284.368L317.03 145.976M180 479.624L354.905 479.209L301.138 428.538M180 479.624L285 479.353L301.138 428.538M180 479.624L301.138 428.538M301.138 428.538L362.645 236.896L317.03 145.976" stroke="white" stroke-width="15" stroke-linejoin="round"/>
</svg>
